<svg width="110" height="37" viewBox="0 0 110 37" fill="none" xmlns="http://www.w3.org/2000/svg">
<rect x="0.45682" y="0.45682" width="108.723" height="35.632" rx="6.8523" fill="white"/>
<rect x="0.45682" y="0.45682" width="108.723" height="35.632" rx="6.8523" stroke="white" stroke-width="0.91364"/>
<path d="M74.4868 17.5427V19.6359H73.1748V21.0086H74.4868V25.6727C74.4868 27.2653 75.2073 27.9024 77.0198 27.9024C77.3383 27.9024 77.6417 27.8644 77.9071 27.8189V26.4614C77.6796 26.4842 77.5355 26.4993 77.2853 26.4993C76.4738 26.4993 76.1173 26.1201 76.1173 25.2556V21.0086H77.9071V19.6359H76.1173V17.5427H74.4868Z" fill="black"/>
<path d="M82.5245 28.0161C84.9362 28.0161 86.4151 26.4007 86.4151 23.7236C86.4151 21.0617 84.9286 19.4387 82.5245 19.4387C80.1128 19.4387 78.6264 21.0617 78.6264 23.7236C78.6264 26.4007 80.1053 28.0161 82.5245 28.0161ZM82.5245 26.5676C81.1063 26.5676 80.31 25.5286 80.31 23.7236C80.31 21.9338 81.1063 20.8872 82.5245 20.8872C83.9351 20.8872 84.739 21.9338 84.739 23.7236C84.739 25.521 83.9351 26.5676 82.5245 26.5676Z" fill="black"/>
<path d="M87.6804 27.8569H89.3109V22.9804C89.3109 21.8201 90.1831 21.0389 91.4193 21.0389C91.7074 21.0389 92.1928 21.092 92.3293 21.1375V19.5297C92.1549 19.4842 91.844 19.4615 91.6013 19.4615C90.5244 19.4615 89.6067 20.053 89.3716 20.8645H89.2503V19.598H87.6804V27.8569Z" fill="black"/>
<path d="M96.3779 20.8266C97.5838 20.8266 98.3725 21.6684 98.4104 22.9652H94.2393C94.3303 21.676 95.1721 20.8266 96.3779 20.8266ZM98.4028 25.6272C98.0995 26.2718 97.4245 26.6283 96.4386 26.6283C95.1342 26.6283 94.2924 25.7106 94.2393 24.2621V24.1711H100.071V23.6023C100.071 21.0086 98.6834 19.4387 96.3855 19.4387C94.0573 19.4387 92.5784 21.1147 92.5784 23.754C92.5784 26.3932 94.0269 28.0161 96.3931 28.0161C98.2815 28.0161 99.6011 27.106 99.9727 25.6272H98.4028Z" fill="black"/>
<path d="M63.7939 24.807C63.9197 26.835 65.6097 28.132 68.1251 28.132C70.8134 28.132 72.4955 26.7721 72.4955 24.6026C72.4955 22.8969 71.5365 21.9536 69.2098 21.4112L67.96 21.1047C66.4822 20.7588 65.8848 20.295 65.8848 19.4854C65.8848 18.4635 66.8124 17.7954 68.2037 17.7954C69.5242 17.7954 70.4361 18.4478 70.6011 19.4933H72.3147C72.2125 17.5832 70.5304 16.239 68.2273 16.239C65.7512 16.239 64.1005 17.5832 64.1005 19.6033C64.1005 21.2697 65.0359 22.2602 67.0875 22.7397L68.5495 23.0934C70.0509 23.4471 70.7112 23.9659 70.7112 24.8306C70.7112 25.8367 69.6736 26.5677 68.2587 26.5677C66.7416 26.5677 65.6883 25.8839 65.539 24.807H63.7939Z" fill="black"/>
<path d="M46.9032 19.4615C45.7807 19.4615 44.81 20.0227 44.3094 20.9631H44.1881V19.598H42.6182V30.6022H44.2488V26.6055H44.3777C44.81 27.4777 45.7428 27.9934 46.9183 27.9934C49.0039 27.9934 50.3311 26.3477 50.3311 23.7236C50.3311 21.0996 49.0039 19.4615 46.9032 19.4615ZM46.4405 26.5297C45.0754 26.5297 44.2184 25.4528 44.2184 23.7312C44.2184 22.0021 45.0754 20.9251 46.4481 20.9251C47.8284 20.9251 48.655 21.9793 48.655 23.7236C48.655 25.4755 47.8284 26.5297 46.4405 26.5297Z" fill="black"/>
<path d="M56.0366 19.4615C54.9142 19.4615 53.9435 20.0227 53.4429 20.9631H53.3216V19.598H51.7517V30.6022H53.3822V26.6055H53.5112C53.9435 27.4777 54.8763 27.9934 56.0518 27.9934C58.1374 27.9934 59.4646 26.3477 59.4646 23.7236C59.4646 21.0996 58.1374 19.4615 56.0366 19.4615ZM55.574 26.5297C54.2089 26.5297 53.3519 25.4528 53.3519 23.7312C53.3519 22.0021 54.2089 20.9251 55.5816 20.9251C56.9619 20.9251 57.7885 21.9793 57.7885 23.7236C57.7885 25.4755 56.9619 26.5297 55.574 26.5297Z" fill="black"/>
<path d="M39.6928 27.8569H41.5636L37.4682 16.5141H35.5738L31.4785 27.8569H33.2864L34.3319 24.8463H38.6552L39.6928 27.8569ZM36.4306 18.5736H36.5643L38.2071 23.3685H34.7799L36.4306 18.5736Z" fill="black"/>
<path d="M32.5723 7.95868V13.4305H34.5479C36.1784 13.4305 37.1226 12.4256 37.1226 10.6775C37.1226 8.95597 36.1708 7.95868 34.5479 7.95868H32.5723ZM33.4217 8.73224H34.4531C35.5869 8.73224 36.2581 9.45272 36.2581 10.6889C36.2581 11.944 35.5983 12.6569 34.4531 12.6569H33.4217V8.73224Z" fill="black"/>
<path d="M40.0144 13.5101C41.2202 13.5101 41.9596 12.7024 41.9596 11.3639C41.9596 10.0329 41.2164 9.22141 40.0144 9.22141C38.8085 9.22141 38.0653 10.0329 38.0653 11.3639C38.0653 12.7024 38.8047 13.5101 40.0144 13.5101ZM40.0144 12.7859C39.3053 12.7859 38.9071 12.2664 38.9071 11.3639C38.9071 10.469 39.3053 9.94567 40.0144 9.94567C40.7197 9.94567 41.1216 10.469 41.1216 11.3639C41.1216 12.2626 40.7197 12.7859 40.0144 12.7859Z" fill="black"/>
<path d="M48.2566 9.30104H47.4413L46.7057 12.4522H46.6412L45.7918 9.30104H45.0107L44.1613 12.4522H44.1006L43.3612 9.30104H42.5345L43.6721 13.4305H44.5101L45.3595 10.3893H45.424L46.2772 13.4305H47.1228L48.2566 9.30104Z" fill="black"/>
<path d="M49.1955 13.4305H50.0107V11.015C50.0107 10.3704 50.3937 9.96842 50.9967 9.96842C51.5996 9.96842 51.8878 10.2983 51.8878 10.9619V13.4305H52.703V10.7572C52.703 9.77503 52.1949 9.22141 51.2735 9.22141C50.6516 9.22141 50.2421 9.49822 50.0411 9.95705H49.9804V9.30104H49.1955V13.4305Z" fill="black"/>
<path d="M53.987 13.4305H54.8023V7.68945H53.987V13.4305Z" fill="black"/>
<path d="M57.8685 13.5101C59.0743 13.5101 59.8137 12.7024 59.8137 11.3639C59.8137 10.0329 59.0705 9.22141 57.8685 9.22141C56.6626 9.22141 55.9194 10.0329 55.9194 11.3639C55.9194 12.7024 56.6588 13.5101 57.8685 13.5101ZM57.8685 12.7859C57.1594 12.7859 56.7612 12.2664 56.7612 11.3639C56.7612 10.469 57.1594 9.94567 57.8685 9.94567C58.5738 9.94567 58.9757 10.469 58.9757 11.3639C58.9757 12.2626 58.5738 12.7859 57.8685 12.7859Z" fill="black"/>
<path d="M62.2429 12.8124C61.7992 12.8124 61.4769 12.5963 61.4769 12.2246C61.4769 11.8606 61.7347 11.6672 62.3035 11.6293L63.3122 11.5648V11.9099C63.3122 12.4218 62.8572 12.8124 62.2429 12.8124ZM62.0343 13.4987C62.5765 13.4987 63.0278 13.2636 63.2743 12.8503H63.3387V13.4305H64.1237V10.6093C64.1237 9.73711 63.5397 9.22141 62.5045 9.22141C61.5679 9.22141 60.9005 9.67644 60.8171 10.3855H61.6058C61.6968 10.0936 62.0115 9.92671 62.4666 9.92671C63.024 9.92671 63.3122 10.1732 63.3122 10.6093V10.9657L62.1936 11.0302C61.2114 11.0908 60.6578 11.5193 60.6578 12.2626C60.6578 13.0172 61.238 13.4987 62.0343 13.4987Z" fill="black"/>
<path d="M66.8903 13.4987C67.4591 13.4987 67.9407 13.2295 68.1871 12.7783H68.2516V13.4305H69.0327V7.68945H68.2175V9.95705H68.1568C67.9331 9.50201 67.4553 9.23278 66.8903 9.23278C65.8475 9.23278 65.1763 10.0594 65.1763 11.3639C65.1763 12.6721 65.8399 13.4987 66.8903 13.4987ZM67.1216 9.96463C67.8042 9.96463 68.2326 10.5069 68.2326 11.3677C68.2326 12.2322 67.8079 12.7669 67.1216 12.7669C66.4315 12.7669 66.0181 12.2398 66.0181 11.3639C66.0181 10.4955 66.4353 9.96463 67.1216 9.96463Z" fill="black"/>
<path d="M74.3195 13.5101C75.5253 13.5101 76.2648 12.7024 76.2648 11.3639C76.2648 10.0329 75.5216 9.22141 74.3195 9.22141C73.1137 9.22141 72.3704 10.0329 72.3704 11.3639C72.3704 12.7024 73.1099 13.5101 74.3195 13.5101ZM74.3195 12.7859C73.6104 12.7859 73.2122 12.2664 73.2122 11.3639C73.2122 10.469 73.6104 9.94567 74.3195 9.94567C75.0248 9.94567 75.4268 10.469 75.4268 11.3639C75.4268 12.2626 75.0248 12.7859 74.3195 12.7859Z" fill="black"/>
<path d="M77.344 13.4305H78.1592V11.015C78.1592 10.3704 78.5422 9.96842 79.1452 9.96842C79.7481 9.96842 80.0363 10.2983 80.0363 10.9619V13.4305H80.8515V10.7572C80.8515 9.77503 80.3434 9.22141 79.422 9.22141C78.8001 9.22141 78.3906 9.49822 78.1896 9.95705H78.1289V9.30104H77.344V13.4305Z" fill="black"/>
<path d="M84.6063 8.27342V9.32H83.9503V10.0063H84.6063V12.3384C84.6063 13.1347 84.9666 13.4532 85.8729 13.4532C86.0321 13.4532 86.1838 13.4343 86.3165 13.4115V12.7328C86.2028 12.7441 86.1307 12.7517 86.0056 12.7517C85.5998 12.7517 85.4216 12.5621 85.4216 12.1298V10.0063H86.3165V9.32H85.4216V8.27342H84.6063Z" fill="black"/>
<path d="M87.4109 13.4305H88.2261V11.0188C88.2261 10.3931 88.5978 9.97221 89.2651 9.97221C89.8415 9.97221 90.1487 10.3059 90.1487 10.9657V13.4305H90.9639V10.7647C90.9639 9.78262 90.4217 9.2252 89.542 9.2252C88.9201 9.2252 88.484 9.50201 88.283 9.96463H88.2186V7.68945H87.4109V13.4305Z" fill="black"/>
<path d="M93.905 9.91534C94.5079 9.91534 94.9023 10.3362 94.9212 10.9847H92.8357C92.8812 10.34 93.3021 9.91534 93.905 9.91534ZM94.9174 12.3156C94.7658 12.638 94.4283 12.8162 93.9353 12.8162C93.2831 12.8162 92.8622 12.3574 92.8357 11.6331V11.5876H95.7517V11.3032C95.7517 10.0063 95.0577 9.22141 93.9088 9.22141C92.7446 9.22141 92.0052 10.0594 92.0052 11.379C92.0052 12.6986 92.7295 13.5101 93.9126 13.5101C94.8568 13.5101 95.5166 13.0551 95.7024 12.3156H94.9174Z" fill="black"/>
<path d="M22.6307 18.5476C22.6505 17.0118 23.4753 15.5586 24.7838 14.7541C23.9583 13.5752 22.5758 12.8278 21.1373 12.7828C19.6031 12.6218 18.1157 13.7008 17.3339 13.7008C16.537 13.7008 15.3333 12.7988 14.037 12.8255C12.3475 12.88 10.7724 13.8406 9.95041 15.3177C8.18343 18.377 9.50144 22.8731 11.1941 25.3459C12.0409 26.5568 13.0306 27.9094 14.3257 27.8615C15.5929 27.8089 16.0663 27.0534 17.596 27.0534C19.1115 27.0534 19.5555 27.8615 20.8768 27.831C22.2367 27.8089 23.0934 26.6147 23.9106 25.3923C24.5191 24.5295 24.9873 23.5759 25.2979 22.5669C23.6998 21.891 22.6326 20.2828 22.6307 18.5476Z" fill="black"/>
<path d="M20.135 11.1565C20.8764 10.2664 21.2417 9.1224 21.1533 7.96735C20.0205 8.08632 18.9741 8.62771 18.2227 9.48363C17.4879 10.3199 17.1054 11.4438 17.1777 12.5547C18.3109 12.5664 19.4249 12.0397 20.135 11.1565Z" fill="black"/>
</svg>
