<svg width="124" height="37" viewBox="0 0 124 37" fill="none" xmlns="http://www.w3.org/2000/svg">
<rect x="1.09354" y="0.45682" width="122.428" height="35.632" rx="6.8523" fill="#263238"/>
<rect x="1.09354" y="0.45682" width="122.428" height="35.632" rx="6.8523" stroke="#263238" stroke-width="0.91364"/>
<path d="M98.3368 27.4092H100.042V15.9872H98.3368V27.4092ZM113.692 20.1019L111.738 25.0538H111.68L109.651 20.1019H107.815L110.857 27.0227L109.122 30.8728H110.9L115.588 20.1019H113.692ZM104.023 26.1119C103.466 26.1119 102.687 25.8324 102.687 25.1419C102.687 24.2603 103.657 23.9224 104.494 23.9224C105.243 23.9224 105.597 24.0837 106.052 24.3043C105.919 25.3625 105.008 26.1119 104.023 26.1119ZM104.23 19.852C102.995 19.852 101.717 20.3959 101.188 21.6008L102.701 22.2325C103.025 21.6008 103.627 21.3953 104.259 21.3953C105.141 21.3953 106.037 21.9238 106.052 22.8646V22.982C105.743 22.8057 105.081 22.5412 104.274 22.5412C102.642 22.5412 100.982 23.4373 100.982 25.1126C100.982 26.6408 102.319 27.6255 103.818 27.6255C104.963 27.6255 105.597 27.1112 105.992 26.5085H106.052V27.3907H107.698V23.0112C107.698 20.9834 106.183 19.852 104.23 19.852ZM93.6936 21.4923H91.2688V17.5773H93.6936C94.9682 17.5773 95.6918 18.6322 95.6918 19.5347C95.6918 20.4199 94.9682 21.4923 93.6936 21.4923ZM93.6498 15.9872H89.5647V27.4092H91.2688V23.0819H93.6498C95.5392 23.0819 97.3966 21.7143 97.3966 19.5347C97.3966 17.3556 95.5392 15.9872 93.6498 15.9872ZM71.374 26.114C70.1962 26.114 69.2105 25.1276 69.2105 23.7739C69.2105 22.4046 70.1962 21.4041 71.374 21.4041C72.5367 21.4041 73.4493 22.4046 73.4493 23.7739C73.4493 25.1276 72.5367 26.114 71.374 26.114ZM73.3315 20.7415H73.2726C72.8901 20.2853 72.1538 19.8731 71.227 19.8731C69.2836 19.8731 67.5028 21.5808 67.5028 23.7739C67.5028 25.952 69.2836 27.6448 71.227 27.6448C72.1538 27.6448 72.8901 27.2325 73.2726 26.7618H73.3315V27.3207C73.3315 28.8079 72.5367 29.6023 71.2562 29.6023C70.2115 29.6023 69.5639 28.8518 69.2986 28.219L67.8122 28.8371C68.2387 29.8671 69.3718 31.1334 71.2562 31.1334C73.2583 31.1334 74.951 29.9556 74.951 27.0851V20.1087H73.3315V20.7415ZM76.1288 27.4092H77.8355V15.9872H76.1288V27.4092ZM80.3527 23.6412C80.3087 22.1397 81.5161 21.3745 82.3841 21.3745C83.0614 21.3745 83.6349 21.7132 83.827 22.1986L80.3527 23.6412ZM85.6514 22.3456C85.3277 21.4777 84.3416 19.8731 82.3251 19.8731C80.323 19.8731 78.6599 21.4481 78.6599 23.7589C78.6599 25.9374 80.3087 27.6448 82.5161 27.6448C84.2969 27.6448 85.3277 26.5559 85.7548 25.9227L84.4301 25.0394C83.9883 25.6872 83.3851 26.114 82.5161 26.114C81.6481 26.114 81.0297 25.7165 80.6328 24.9364L85.828 22.7875L85.6514 22.3456ZM44.2564 21.0654V22.7139H48.201C48.0833 23.6412 47.7742 24.3182 47.3031 24.7893C46.7289 25.3631 45.831 25.9963 44.2564 25.9963C41.8277 25.9963 39.929 24.0387 39.929 21.6101C39.929 19.1814 41.8277 17.2236 44.2564 17.2236C45.5665 17.2236 46.523 17.7389 47.2296 18.4013L48.3927 17.2382C47.4063 16.2963 46.0965 15.5751 44.2564 15.5751C40.9294 15.5751 38.1328 18.2835 38.1328 21.6101C38.1328 24.9364 40.9294 27.6448 44.2564 27.6448C46.0519 27.6448 47.4063 27.0559 48.4659 25.952C49.5551 24.8628 49.8938 23.3321 49.8938 22.0955C49.8938 21.7132 49.8641 21.3599 49.8053 21.0654H44.2564ZM54.3785 26.114C53.2007 26.114 52.1851 25.1426 52.1851 23.7589C52.1851 22.3606 53.2007 21.4041 54.3785 21.4041C55.5558 21.4041 56.5715 22.3606 56.5715 23.7589C56.5715 25.1426 55.5558 26.114 54.3785 26.114ZM54.3785 19.8731C52.2289 19.8731 50.4776 21.5069 50.4776 23.7589C50.4776 25.9963 52.2289 27.6448 54.3785 27.6448C56.5273 27.6448 58.2789 25.9963 58.2789 23.7589C58.2789 21.5069 56.5273 19.8731 54.3785 19.8731ZM62.8871 26.114C61.7101 26.114 60.6941 25.1426 60.6941 23.7589C60.6941 22.3606 61.7101 21.4041 62.8871 21.4041C64.0648 21.4041 65.0802 22.3606 65.0802 23.7589C65.0802 25.1426 64.0648 26.114 62.8871 26.114ZM62.8871 19.8731C60.7383 19.8731 58.987 21.5069 58.987 23.7589C58.987 25.9963 60.7383 27.6448 62.8871 27.6448C65.0367 27.6448 66.7879 25.9963 66.7879 23.7589C66.7879 21.5069 65.0367 19.8731 62.8871 19.8731Z" fill="white"/>
<path d="M41.2731 12.0914C40.454 12.0914 39.7494 11.8032 39.1814 11.2352C38.613 10.6669 38.3252 9.95528 38.3252 9.12781C38.3252 8.30033 38.6132 7.58997 39.1814 7.02037C39.7494 6.45231 40.454 6.16419 41.2731 6.16419C41.6904 6.16419 42.0799 6.23626 42.4521 6.38635C42.8244 6.53645 43.1291 6.74482 43.369 7.01751L43.4255 7.08193L42.7865 7.72076L42.7226 7.64225C42.5636 7.44678 42.3612 7.29492 42.1048 7.18454C41.8494 7.07443 41.5696 7.02358 41.2731 7.02358C40.6962 7.02358 40.2175 7.2195 39.8177 7.6178C39.8176 7.61789 39.8174 7.61789 39.8173 7.61798C39.4267 8.02432 39.2303 8.51904 39.2303 9.12781C39.2303 9.73705 39.4269 10.2319 39.8181 10.6384C40.2178 11.0365 40.6965 11.2335 41.2731 11.2335C41.8012 11.2335 42.238 11.086 42.5815 10.7941H42.5816C42.9013 10.5225 43.0932 10.1554 43.1611 9.68742H41.1817V8.84515H44.0165L44.0287 8.92224C44.0519 9.0703 44.0683 9.21322 44.0683 9.35051C44.0683 10.1364 43.8287 10.7779 43.3586 11.2499C42.828 11.8124 42.1301 12.0914 41.2731 12.0914L41.2731 12.0914ZM65.8882 12.0914C65.0679 12.0914 64.3715 11.8031 63.8108 11.2352C63.8107 11.2352 63.8107 11.2352 63.8106 11.2351C63.8105 11.235 63.8105 11.235 63.8104 11.2349C63.2489 10.6732 62.9703 9.96139 62.9703 9.1278C62.9703 8.2942 63.2489 7.58241 63.8104 7.02071C63.8104 7.02065 63.8105 7.02062 63.8106 7.02053L63.8108 7.02035C64.3715 6.45243 65.0679 6.16417 65.8882 6.16417C66.707 6.16417 67.4035 6.4525 67.9642 7.02891C68.526 7.59053 68.8047 8.30096 68.8047 9.12779C68.8047 9.96138 68.5261 10.6732 67.9646 11.2349L67.9644 11.2351C67.4033 11.8033 66.7003 12.0914 65.8882 12.0914L65.8882 12.0914ZM44.8795 11.9687V6.28696H44.9709H48.2728V7.14635H45.7689V8.70667H48.0273V9.54894H45.7689V11.1107H48.2728V11.9687H44.8795ZM50.3496 11.9687V7.14635H48.8135V6.28696H52.775V7.14635H52.6836H51.2389V11.9687H50.3496ZM55.3068 11.9687V6.28696H56.1961V6.37832V11.9687H55.3068ZM58.4349 11.9687V7.14635H56.8989V6.28696H60.8603V7.14635H60.769H59.3243V11.9687H58.4349ZM69.5942 11.9687V6.28696H70.597L73.1493 10.373L73.1274 9.59729V6.28696H74.0168V11.9687H73.1367L70.4616 7.67615L70.4835 8.45132V8.45257V11.9687H69.5942ZM65.8882 11.2335C66.4652 11.2335 66.9361 11.0367 67.3201 10.6391L67.3206 10.6383L67.3212 10.6378C67.7106 10.2483 67.9011 9.74688 67.9011 9.12778C67.9011 8.51018 67.7105 8.00709 67.3212 7.61777L67.3206 7.61722L67.3201 7.61667C66.9362 7.21912 66.4653 7.02352 65.8882 7.02352C65.3102 7.02352 64.8393 7.21878 64.4482 7.61632L64.4478 7.61668C64.0656 8.01545 63.8753 8.51035 63.8753 9.12776C63.8753 9.74667 64.0655 10.24 64.4478 10.6388L64.4482 10.6392C64.8394 11.0368 65.3103 11.2334 65.8882 11.2334V11.2335Z" fill="white"/>
<path d="M19.562 17.7458L9.83496 28.07C9.83533 28.0721 9.83606 28.0739 9.83642 28.076C10.1347 29.197 11.1586 30.0225 12.3739 30.0225C12.8597 30.0225 13.3157 29.8912 13.7069 29.6606L13.7379 29.6424L24.687 23.3244L19.562 17.7458Z" fill="#EA4335"/>
<path d="M29.4036 15.9878L29.3943 15.9814L24.6673 13.2412L19.3418 17.98L24.6859 23.3234L29.3879 20.6103C30.2123 20.1653 30.7719 19.2962 30.7719 18.2941C30.7719 17.2991 30.2198 16.4343 29.4036 15.9878Z" fill="#FBBC04"/>
<path d="M9.8353 8.47524C9.77683 8.69086 9.74609 8.91671 9.74609 9.15125V27.3944C9.74609 27.6285 9.77646 27.8552 9.83567 28.07L19.8975 18.01L9.8353 8.47524Z" fill="#4285F4"/>
<path d="M19.6341 18.2727L24.6688 13.2395L13.7322 6.89862C13.3347 6.66052 12.8707 6.52311 12.3742 6.52311C11.159 6.52311 10.1337 7.35005 9.83533 8.47246C9.83496 8.47355 9.83496 8.47428 9.83496 8.47529L19.6341 18.2727Z" fill="#34A853"/>
</svg>
