<svg width="125" height="37" viewBox="0 0 125 37" fill="none" xmlns="http://www.w3.org/2000/svg">
<rect x="1.14432" y="0.45682" width="122.428" height="35.632" rx="6.8523" fill="white"/>
<rect x="1.14432" y="0.45682" width="122.428" height="35.632" rx="6.8523" stroke="white" stroke-width="0.91364"/>
<path d="M62.9397 19.8727C60.7908 19.8727 59.0394 21.5072 59.0394 23.7584C59.0394 25.9959 60.7908 27.6441 62.9397 27.6441C65.0895 27.6441 66.841 25.9959 66.841 23.7584C66.84 21.5072 65.0886 19.8727 62.9397 19.8727ZM62.9397 26.1147C61.762 26.1147 60.747 25.1435 60.747 23.7593C60.747 22.3606 61.7629 21.404 62.9397 21.404C64.1174 21.404 65.1325 22.3606 65.1325 23.7593C65.1325 25.1426 64.1174 26.1147 62.9397 26.1147ZM54.4301 19.8727C52.2812 19.8727 50.5297 21.5072 50.5297 23.7584C50.5297 25.9959 52.2812 27.6441 54.4301 27.6441C56.5799 27.6441 58.3313 25.9959 58.3313 23.7584C58.3313 21.5072 56.5799 19.8727 54.4301 19.8727ZM54.4301 26.1147C53.2524 26.1147 52.2373 25.1435 52.2373 23.7593C52.2373 22.3606 53.2533 21.404 54.4301 21.404C55.6077 21.404 56.6228 22.3606 56.6228 23.7593C56.6237 25.1426 55.6077 26.1147 54.4301 26.1147ZM44.3088 21.0659V22.7141H48.2539C48.136 23.6415 47.8272 24.3185 47.3558 24.789C46.782 25.3628 45.8839 25.9959 44.3088 25.9959C41.8803 25.9959 39.9818 24.038 39.9818 21.6095C39.9818 19.1811 41.8803 17.2232 44.3088 17.2232C45.6189 17.2232 46.5755 17.7385 47.2817 18.4008L48.4448 17.2378C47.4581 16.2958 46.1488 15.575 44.3088 15.575C40.9822 15.575 38.1855 18.283 38.1855 21.6095C38.1855 24.9361 40.9822 27.6441 44.3088 27.6441C46.1041 27.6441 47.459 27.0548 48.5179 25.9512C49.607 24.8621 49.9459 23.3308 49.9459 22.0947C49.9459 21.7128 49.9167 21.3592 49.8573 21.065H44.3088V21.0659ZM85.704 22.3459C85.3805 21.478 84.3938 19.8727 82.3774 19.8727C80.3756 19.8727 78.7119 21.4478 78.7119 23.7584C78.7119 25.9365 80.361 27.6441 82.5684 27.6441C84.349 27.6441 85.3796 26.5551 85.8072 25.9219L84.4824 25.0384C84.0411 25.6862 83.4372 26.1129 82.5684 26.1129C81.7004 26.1129 81.0819 25.7154 80.6844 24.9352L85.8803 22.7863L85.704 22.3459ZM80.4049 23.6415C80.361 22.1395 81.5679 21.3747 82.4368 21.3747C83.1138 21.3747 83.6876 21.7137 83.8794 22.1988L80.4049 23.6415ZM76.1811 27.4093H77.8878V15.9879H76.1811V27.4093ZM73.3835 20.7416H73.3251C72.9422 20.2848 72.2058 19.8727 71.2794 19.8727C69.3361 19.8727 67.5554 21.5803 67.5554 23.774C67.5554 25.9521 69.3361 27.645 71.2794 27.645C72.2068 27.645 72.9422 27.233 73.3251 26.7625H73.3835V27.3216C73.3835 28.8081 72.5887 29.603 71.3087 29.603C70.2634 29.603 69.6157 28.8529 69.3507 28.2197L67.8642 28.8383C68.2909 29.8679 69.4238 31.1342 71.3087 31.1342C73.3104 31.1342 75.0034 29.9566 75.0034 27.0859V20.1093H73.3844V20.7416H73.3835ZM71.4265 26.1147C70.2488 26.1147 69.263 25.128 69.263 23.774C69.263 22.4044 70.2488 21.404 71.4265 21.404C72.5887 21.404 73.5014 22.4044 73.5014 23.774C73.5014 25.128 72.5887 26.1147 71.4265 26.1147ZM93.702 15.9879H89.6171V27.4093H91.321V23.0823H93.7011C95.5905 23.0823 97.4488 21.7146 97.4488 19.5356C97.4488 17.3565 95.5914 15.9879 93.702 15.9879ZM93.7458 21.4926H91.321V17.5777H93.7458C95.0204 17.5777 95.744 18.6329 95.744 19.5356C95.744 20.42 95.0204 21.4926 93.7458 21.4926ZM104.282 19.8526C103.048 19.8526 101.769 20.3962 101.24 21.6013L102.753 22.2326C103.077 21.6013 103.68 21.3948 104.311 21.3948C105.193 21.3948 106.089 21.9238 106.104 22.864V22.9818C105.795 22.8055 105.133 22.5415 104.326 22.5415C102.695 22.5415 101.034 23.4377 101.034 25.1124C101.034 26.641 102.371 27.6249 103.87 27.6249C105.016 27.6249 105.648 27.1106 106.044 26.5076H106.103V27.3892H107.749V23.0102C107.75 20.9837 106.235 19.8526 104.282 19.8526ZM104.075 26.112C103.518 26.112 102.739 25.8324 102.739 25.1417C102.739 24.26 103.709 23.922 104.547 23.922C105.295 23.922 105.649 24.0837 106.104 24.3039C105.971 25.3628 105.06 26.112 104.075 26.112ZM113.744 20.102L111.79 25.054H111.732L109.703 20.102H107.867L110.909 27.0229L109.174 30.8729H110.952L115.64 20.102H113.744ZM98.3899 27.4093H100.094V15.9879H98.3899V27.4093Z" fill="black"/>
<path d="M44.0109 9.35839C44.0109 10.124 43.7843 10.7334 43.3302 11.1884C42.8149 11.7293 42.1425 11.9997 41.3166 11.9997C40.5254 11.9997 39.852 11.7256 39.2992 11.1774C38.7456 10.6283 38.4688 9.9486 38.4688 9.13729C38.4688 8.32506 38.7456 7.64531 39.2992 7.09713C39.852 6.54803 40.5254 6.27394 41.3166 6.27394C41.7094 6.27394 42.0849 6.35069 42.4413 6.50326C42.7985 6.65676 43.0845 6.8605 43.2983 7.1154L42.8168 7.5978C42.454 7.16383 41.9543 6.94729 41.3156 6.94729C40.7382 6.94729 40.2394 7.15012 39.8182 7.55578C39.397 7.96143 39.1869 8.4886 39.1869 9.13637C39.1869 9.78415 39.397 10.3113 39.8182 10.717C40.2394 11.1226 40.7382 11.3255 41.3156 11.3255C41.9278 11.3255 42.4385 11.1217 42.8469 10.7133C43.1119 10.4474 43.2654 10.0774 43.3065 9.60324H41.3156V8.94451H43.9716C43.999 9.08795 44.0109 9.22591 44.0109 9.35839Z" fill="black"/>
<path d="M48.2229 7.06886H45.7268V8.8066H47.978V9.46534H45.7268V11.2031H48.2229V11.8773H45.0224V6.39551H48.2229V7.06886Z" fill="black"/>
<path d="M51.193 11.8773H50.4886V7.06886H48.9573V6.39551H52.7243V7.06886H51.193V11.8773Z" fill="black"/>
<path d="M55.4496 11.8773V6.39551H56.154V11.8773H55.4496Z" fill="black"/>
<path d="M59.2779 11.8773H58.5735V7.06886H57.0422V6.39551H60.8092V7.06886H59.2779V11.8773Z" fill="black"/>
<path d="M67.9399 11.1693C67.4009 11.7229 66.7312 11.9998 65.9299 11.9998C65.1287 11.9998 64.459 11.7229 63.9208 11.1693C63.3818 10.6156 63.1132 9.93768 63.1132 9.13642C63.1132 8.33516 63.3818 7.65723 63.9208 7.10357C64.459 6.5499 65.1287 6.27216 65.9299 6.27216C66.7266 6.27216 67.3954 6.55082 67.9363 7.10722C68.4771 7.66363 68.7476 8.33972 68.7476 9.13642C68.7476 9.93768 68.4781 10.6156 67.9399 11.1693ZM64.4407 10.7097C64.8463 11.1208 65.3424 11.3255 65.9299 11.3255C66.5174 11.3255 67.0144 11.1199 67.4191 10.7097C67.8248 10.2986 68.0285 9.77414 68.0285 9.13642C68.0285 8.4987 67.8248 7.97427 67.4191 7.56313C67.0144 7.15199 66.5174 6.94734 65.9299 6.94734C65.3424 6.94734 64.8463 7.1529 64.4407 7.56313C64.0359 7.97427 63.8322 8.4987 63.8322 9.13642C63.8322 9.77414 64.0359 10.2986 64.4407 10.7097Z" fill="black"/>
<path d="M69.7362 11.8773V6.39551H70.5932L73.2573 10.6595H73.2875L73.2573 9.6033V6.39551H73.9617V11.8773H73.2263L70.4388 7.40599H70.4086L70.4388 8.46216V11.8773H69.7362Z" fill="black"/>
<path d="M44.0109 9.35839C44.0109 10.124 43.7843 10.7334 43.3302 11.1884C42.8149 11.7293 42.1425 11.9997 41.3166 11.9997C40.5254 11.9997 39.852 11.7256 39.2992 11.1774C38.7456 10.6283 38.4688 9.9486 38.4688 9.13729C38.4688 8.32506 38.7456 7.64531 39.2992 7.09713C39.852 6.54803 40.5254 6.27394 41.3166 6.27394C41.7094 6.27394 42.0849 6.35069 42.4413 6.50326C42.7985 6.65676 43.0845 6.8605 43.2983 7.1154L42.8168 7.5978C42.454 7.16383 41.9543 6.94729 41.3156 6.94729C40.7382 6.94729 40.2394 7.15012 39.8182 7.55578C39.397 7.96143 39.1869 8.4886 39.1869 9.13637C39.1869 9.78415 39.397 10.3113 39.8182 10.717C40.2394 11.1226 40.7382 11.3255 41.3156 11.3255C41.9278 11.3255 42.4385 11.1217 42.8469 10.7133C43.1119 10.4474 43.2654 10.0774 43.3065 9.60324H41.3156V8.94451H43.9716C43.999 9.08795 44.0109 9.22591 44.0109 9.35839Z" stroke="black" stroke-width="0.182728" stroke-miterlimit="10"/>
<path d="M48.2229 7.06886H45.7268V8.8066H47.978V9.46534H45.7268V11.2031H48.2229V11.8773H45.0224V6.39551H48.2229V7.06886Z" stroke="black" stroke-width="0.182728" stroke-miterlimit="10"/>
<path d="M51.193 11.8773H50.4886V7.06886H48.9573V6.39551H52.7243V7.06886H51.193V11.8773Z" stroke="black" stroke-width="0.182728" stroke-miterlimit="10"/>
<path d="M55.4496 11.8773V6.39551H56.154V11.8773H55.4496Z" stroke="black" stroke-width="0.182728" stroke-miterlimit="10"/>
<path d="M59.2779 11.8773H58.5735V7.06886H57.0422V6.39551H60.8092V7.06886H59.2779V11.8773Z" stroke="black" stroke-width="0.182728" stroke-miterlimit="10"/>
<path d="M67.9399 11.1693C67.4009 11.7229 66.7312 11.9998 65.9299 11.9998C65.1287 11.9998 64.459 11.7229 63.9208 11.1693C63.3818 10.6156 63.1132 9.93768 63.1132 9.13642C63.1132 8.33516 63.3818 7.65723 63.9208 7.10357C64.459 6.5499 65.1287 6.27216 65.9299 6.27216C66.7266 6.27216 67.3954 6.55082 67.9363 7.10722C68.4771 7.66363 68.7476 8.33972 68.7476 9.13642C68.7476 9.93768 68.4781 10.6156 67.9399 11.1693ZM64.4407 10.7097C64.8463 11.1208 65.3424 11.3255 65.9299 11.3255C66.5174 11.3255 67.0144 11.1199 67.4191 10.7097C67.8248 10.2986 68.0285 9.77414 68.0285 9.13642C68.0285 8.4987 67.8248 7.97427 67.4191 7.56313C67.0144 7.15199 66.5174 6.94734 65.9299 6.94734C65.3424 6.94734 64.8463 7.1529 64.4407 7.56313C64.0359 7.97427 63.8322 8.4987 63.8322 9.13642C63.8322 9.77414 64.0359 10.2986 64.4407 10.7097Z" stroke="black" stroke-width="0.182728" stroke-miterlimit="10"/>
<path d="M69.7362 11.8773V6.39551H70.5932L73.2573 10.6595H73.2875L73.2573 9.6033V6.39551H73.9617V11.8773H73.2263L70.4388 7.40599H70.4086L70.4388 8.46216V11.8773H69.7362Z" stroke="black" stroke-width="0.182728" stroke-miterlimit="10"/>
<path fill-rule="evenodd" clip-rule="evenodd" d="M24.3095 13.0031L13.7833 6.89858C13.3858 6.66048 12.9218 6.52307 12.4254 6.52307C11.4008 6.52307 10.4999 7.14389 10.0679 8.01169L10.1466 8.09035L19.685 17.6267L24.3095 13.0031ZM9.79957 9.03531C9.79778 9.07379 9.79688 9.11243 9.79688 9.15122V27.3944C9.79688 27.4332 9.79778 27.4718 9.79956 27.5102L19.0389 18.2726L9.79957 9.03531ZM10.068 28.5338C10.5 29.4016 11.4011 30.0225 12.4254 30.0225C12.9111 30.0225 13.3672 29.8912 13.7584 29.6606L13.7894 29.6424L24.3276 23.5602L19.685 18.9186L10.1466 28.4552L10.068 28.5338ZM25.1469 23.0874L29.4387 20.6103C30.2631 20.1652 30.8227 19.2962 30.8227 18.294C30.8227 17.2991 30.2706 16.4343 29.4544 15.9878L29.4451 15.9814L25.1273 13.4774L20.3311 18.2726L25.1469 23.0874Z" fill="black"/>
</svg>
