<svg width="80" height="80" viewBox="0 0 80 80" fill="none" xmlns="http://www.w3.org/2000/svg">
<path fill-rule="evenodd" clip-rule="evenodd" d="M43.6215 71.2924L45.4285 68.2395C46.8301 65.8716 47.5309 64.6876 48.6566 64.0329C49.7822 63.3782 51.1995 63.3538 54.0339 63.3049C58.2185 63.2328 60.8431 62.9764 63.0441 62.0647C67.1279 60.3732 70.3724 57.1286 72.064 53.0448C73.3327 49.982 73.3327 46.0991 73.3327 38.3334V35.0001C73.3327 24.0886 73.3327 18.6329 70.8767 14.6251C69.5024 12.3825 67.6169 10.497 65.3743 9.12275C61.3665 6.66675 55.9108 6.66675 44.9993 6.66675H34.9993C24.0879 6.66675 18.6322 6.66675 14.6244 9.12275C12.3818 10.497 10.4963 12.3825 9.12201 14.6251C6.66602 18.6329 6.66602 24.0886 6.66602 35.0001V38.3334C6.66602 46.0991 6.66602 49.982 7.93469 53.0448C9.62626 57.1286 12.8708 60.3732 16.9546 62.0647C19.1556 62.9764 21.7801 63.2328 25.9646 63.3049C28.7991 63.3538 30.2163 63.3782 31.342 64.0329C32.4676 64.6876 33.1684 65.8716 34.57 68.2395L36.377 71.2924C37.9876 74.0134 42.011 74.0134 43.6215 71.2924ZM24.9993 32.3826C24.9993 38.2246 32.2104 44.4348 36.6329 47.6942C38.1468 48.8099 38.9037 49.3678 39.9994 49.3678C41.095 49.3678 41.8519 48.8099 43.3658 47.6942C47.7884 44.4348 54.9993 38.2247 54.9993 32.3826C54.9993 23.4587 46.7491 20.1269 39.9993 27.0206C33.2496 20.1269 24.9993 23.4587 24.9993 32.3826Z" fill="#407BFF"/>
</svg>
