<svg width="30" height="31" viewBox="0 0 30 31" fill="none" xmlns="http://www.w3.org/2000/svg">
<rect y="0.632812" width="30" height="30" rx="15" fill="white"/>
<g clip-path="url(#clip0_167_581)">
<path d="M15 7.43359C17.6719 7.43359 17.9883 7.44531 19.0391 7.49219C20.0156 7.53516 20.543 7.69922 20.8945 7.83594C21.3594 8.01563 21.6953 8.23438 22.043 8.58203C22.3945 8.93359 22.6094 9.26563 22.7891 9.73047C22.9258 10.082 23.0898 10.6133 23.1328 11.5859C23.1797 12.6406 23.1914 12.957 23.1914 15.625C23.1914 18.2969 23.1797 18.6133 23.1328 19.6641C23.0898 20.6406 22.9258 21.168 22.7891 21.5195C22.6094 21.9844 22.3906 22.3203 22.043 22.668C21.6914 23.0195 21.3594 23.2344 20.8945 23.4141C20.543 23.5508 20.0117 23.7148 19.0391 23.7578C17.9844 23.8047 17.668 23.8164 15 23.8164C12.3281 23.8164 12.0117 23.8047 10.9609 23.7578C9.98438 23.7148 9.45703 23.5508 9.10547 23.4141C8.64063 23.2344 8.30469 23.0156 7.95703 22.668C7.60547 22.3164 7.39063 21.9844 7.21094 21.5195C7.07422 21.168 6.91016 20.6367 6.86719 19.6641C6.82031 18.6094 6.80859 18.293 6.80859 15.625C6.80859 12.9531 6.82031 12.6367 6.86719 11.5859C6.91016 10.6094 7.07422 10.082 7.21094 9.73047C7.39063 9.26563 7.60938 8.92969 7.95703 8.58203C8.30859 8.23047 8.64063 8.01563 9.10547 7.83594C9.45703 7.69922 9.98828 7.53516 10.9609 7.49219C12.0117 7.44531 12.3281 7.43359 15 7.43359ZM15 5.63281C12.2852 5.63281 11.9453 5.64453 10.8789 5.69141C9.81641 5.73828 9.08594 5.91016 8.45313 6.15625C7.79297 6.41406 7.23438 6.75391 6.67969 7.3125C6.12109 7.86719 5.78125 8.42578 5.52344 9.08203C5.27734 9.71875 5.10547 10.4453 5.05859 11.5078C5.01172 12.5781 5 12.918 5 15.6328C5 18.3477 5.01172 18.6875 5.05859 19.7539C5.10547 20.8164 5.27734 21.5469 5.52344 22.1797C5.78125 22.8398 6.12109 23.3984 6.67969 23.9531C7.23438 24.5078 7.79297 24.8516 8.44922 25.1055C9.08594 25.3516 9.8125 25.5234 10.875 25.5703C11.9414 25.6172 12.2813 25.6289 14.9961 25.6289C17.7109 25.6289 18.0508 25.6172 19.1172 25.5703C20.1797 25.5234 20.9102 25.3516 21.543 25.1055C22.1992 24.8516 22.7578 24.5078 23.3125 23.9531C23.8672 23.3984 24.2109 22.8398 24.4648 22.1836C24.7109 21.5469 24.8828 20.8203 24.9297 19.7578C24.9766 18.6914 24.9883 18.3516 24.9883 15.6367C24.9883 12.9219 24.9766 12.582 24.9297 11.5156C24.8828 10.4531 24.7109 9.72266 24.4648 9.08984C24.2188 8.42578 23.8789 7.86719 23.3203 7.3125C22.7656 6.75781 22.207 6.41406 21.5508 6.16016C20.9141 5.91406 20.1875 5.74219 19.125 5.69531C18.0547 5.64453 17.7148 5.63281 15 5.63281Z" fill="#314064"/>
<path d="M15 10.4961C12.1641 10.4961 9.86328 12.7969 9.86328 15.6328C9.86328 18.4687 12.1641 20.7695 15 20.7695C17.8359 20.7695 20.1367 18.4687 20.1367 15.6328C20.1367 12.7969 17.8359 10.4961 15 10.4961ZM15 18.9648C13.1602 18.9648 11.668 17.4727 11.668 15.6328C11.668 13.793 13.1602 12.3008 15 12.3008C16.8398 12.3008 18.332 13.793 18.332 15.6328C18.332 17.4727 16.8398 18.9648 15 18.9648Z" fill="#314064"/>
<path d="M21.5391 10.293C21.5391 10.957 21 11.4922 20.3398 11.4922C19.6758 11.4922 19.1406 10.9531 19.1406 10.293C19.1406 9.62891 19.6797 9.09375 20.3398 9.09375C21 9.09375 21.5391 9.63281 21.5391 10.293Z" fill="#314064"/>
</g>
<defs>
<clipPath id="clip0_167_581">
<rect width="20" height="20" fill="white" transform="translate(5 5.63281)"/>
</clipPath>
</defs>
</svg>
