<svg width="80" height="80" viewBox="0 0 80 80" fill="none" xmlns="http://www.w3.org/2000/svg">
<path d="M23.334 50L23.334 30" stroke="#263238" stroke-width="3" stroke-linecap="round" stroke-linejoin="round"/>
<path d="M69.4444 30H60.7692C54.8215 30 50 34.4772 50 40C50 45.5228 54.8215 50 60.7692 50H69.4444C69.7222 50 69.8611 50 69.9784 49.9929C71.776 49.8835 73.2078 48.5539 73.3256 46.8847C73.3333 46.7758 73.3333 46.6468 73.3333 46.3889V33.6111C73.3333 33.3532 73.3333 33.2242 73.3256 33.1153C73.2078 31.4461 71.776 30.1165 69.9784 30.0071C69.8611 30 69.7222 30 69.4444 30Z" stroke="#263238" stroke-width="3"/>
<path d="M69.8828 29.9999C69.6236 23.7589 68.788 19.9324 66.0941 17.2385C62.1889 13.3333 55.9035 13.3333 43.3327 13.3333L33.3327 13.3333C20.7619 13.3333 14.4765 13.3333 10.5713 17.2385C6.66601 21.1437 6.66602 27.4291 6.66602 39.9999C6.66602 52.5707 6.66602 58.8561 10.5713 62.7613C14.4765 66.6666 20.7619 66.6666 33.3327 66.6666H43.3327C55.9035 66.6666 62.1889 66.6666 66.0941 62.7613C68.788 60.0674 69.6236 56.2409 69.8828 49.9999" stroke="#263238" stroke-width="3"/>
<path d="M59.9708 40H60.0008" stroke="#263238" stroke-width="3" stroke-linecap="round" stroke-linejoin="round"/>
</svg>
