<svg width="40" height="34" viewBox="0 0 40 34" fill="none" xmlns="http://www.w3.org/2000/svg">
<path d="M0.535156 23.6248C0.535156 20.48 1.21414 17.4782 2.57209 14.6193C3.93005 11.7605 5.71684 9.15177 7.93246 6.79321C10.2195 4.36318 12.6853 2.29051 15.3298 0.575195L17.3667 3.46979C14.7937 5.54246 12.6853 7.50793 11.0415 9.36619C9.4691 11.153 8.0754 13.4758 6.86038 16.3347L9.96939 19.122C11.6132 20.48 12.721 21.8022 13.2928 23.0887C13.8646 24.3752 14.1505 25.6974 14.1505 27.0554C14.1505 29.1995 13.5787 30.8076 12.4352 31.8797C11.2916 32.8803 9.75498 33.3806 7.82525 33.3806C6.75318 33.3806 5.71684 33.2377 4.71624 32.9518C3.78711 32.5944 2.89372 32.0227 2.03606 31.2365C1.03546 28.8064 0.535156 26.2692 0.535156 23.6248ZM22.2982 23.6248C22.2982 20.48 22.9772 17.4782 24.3352 14.6193C25.6931 11.7605 27.4799 9.15177 29.6955 6.79321C31.9826 4.36318 34.4484 2.29051 37.0928 0.575195L39.1298 3.46979C36.5568 5.54246 34.4484 7.50793 32.8045 9.36619C31.2322 11.153 29.8385 13.4758 28.6235 16.3347L31.7325 19.122C33.3763 20.48 34.4841 21.8022 35.0559 23.0887C35.6277 24.3752 35.9136 25.6974 35.9136 27.0554C35.9136 29.1995 35.3418 30.8076 34.1982 31.8797C33.0547 32.8803 31.5181 33.3806 29.5883 33.3806C28.5163 33.3806 27.4799 33.2377 26.4793 32.9518C25.5502 32.5944 24.6568 32.0227 23.7991 31.2365C22.7985 28.8064 22.2982 26.2692 22.2982 23.6248Z" fill="#52648D" fill-opacity="0.34"/>
</svg>
