<svg width="80" height="80" viewBox="0 0 80 80" fill="none" xmlns="http://www.w3.org/2000/svg">
<path d="M36.2036 11.2112C37.8924 8.18158 38.7369 6.66675 39.9993 6.66675C41.2618 6.66675 42.1063 8.18158 43.7951 11.2112L44.2321 11.9951C44.712 12.856 44.9519 13.2865 45.3261 13.5705C45.7002 13.8545 46.1662 13.9599 47.0982 14.1708L47.9466 14.3628C51.2262 15.1048 52.866 15.4758 53.2561 16.7304C53.6462 17.9849 52.5283 19.2922 50.2926 21.9066L49.7141 22.583C49.0788 23.326 48.7611 23.6975 48.6182 24.157C48.4753 24.6166 48.5233 25.1122 48.6194 26.1035L48.7068 27.0059C49.0448 30.4942 49.2139 32.2383 48.1925 33.0137C47.1711 33.7891 45.6358 33.0821 42.5651 31.6683L41.7707 31.3025C40.8981 30.9008 40.4618 30.6999 39.9993 30.6999C39.5369 30.6999 39.1006 30.9008 38.228 31.3025L37.4336 31.6683C34.3629 33.0821 32.8276 33.7891 31.8062 33.0137C30.7848 32.2383 30.9539 30.4942 31.2919 27.0059L31.3793 26.1035C31.4754 25.1122 31.5234 24.6166 31.3805 24.157C31.2376 23.6975 30.9199 23.326 30.2846 22.583L29.7061 21.9066C27.4703 19.2922 26.3524 17.9849 26.7426 16.7304C27.1327 15.4758 28.7725 15.1048 32.0521 14.3628L32.9005 14.1708C33.8325 13.9599 34.2985 13.8545 34.6726 13.5705C35.0468 13.2865 35.2867 12.856 35.7666 11.9951L36.2036 11.2112Z" stroke="#263238" stroke-width="3"/>
<path d="M64.7688 25.6055C65.6132 24.0907 66.0354 23.3333 66.6667 23.3333C67.2979 23.3333 67.7201 24.0907 68.5646 25.6055L68.783 25.9974C69.023 26.4279 69.143 26.6431 69.33 26.7851C69.5171 26.9271 69.7501 26.9799 70.2161 27.0853L70.6403 27.1813C72.2801 27.5523 73.1 27.7378 73.2951 28.3651C73.4901 28.9923 72.9312 29.646 71.8133 30.9532L71.5241 31.2914C71.2064 31.6629 71.0475 31.8486 70.9761 32.0784C70.9046 32.3082 70.9286 32.556 70.9767 33.0516L71.0204 33.5028C71.1894 35.247 71.2739 36.1191 70.7632 36.5067C70.2525 36.8944 69.4849 36.5409 67.9496 35.834L67.5523 35.6511C67.116 35.4503 66.8979 35.3498 66.6667 35.3498C66.4354 35.3498 66.2173 35.4503 65.781 35.6511L65.3838 35.834C63.8484 36.5409 63.0808 36.8944 62.5701 36.5067C62.0594 36.1191 62.1439 35.247 62.3129 33.5029L62.3567 33.0516C62.4047 32.556 62.4287 32.3082 62.3572 32.0784C62.2858 31.8486 62.127 31.6629 61.8093 31.2914L61.5201 30.9532C60.4022 29.646 59.8432 28.9923 60.0383 28.3651C60.2333 27.7378 61.0532 27.5523 62.693 27.1813L63.1173 27.0853C63.5832 26.9799 63.8162 26.9271 64.0033 26.7851C64.1904 26.6431 64.3103 26.4279 64.5503 25.9974L64.7688 25.6055Z" stroke="#263238" stroke-width="3"/>
<path d="M11.4348 25.6055C12.2792 24.0907 12.7014 23.3333 13.3327 23.3333C13.9639 23.3333 14.3861 24.0907 15.2306 25.6055L15.449 25.9974C15.689 26.4279 15.809 26.6431 15.9961 26.7851C16.1831 26.9271 16.4161 26.9799 16.8821 27.0853L17.3063 27.1813C18.9461 27.5523 19.766 27.7378 19.9611 28.3651C20.1561 28.9923 19.5972 29.646 18.4793 30.9532L18.1901 31.2914C17.8724 31.6629 17.7136 31.8486 17.6421 32.0784C17.5707 32.3082 17.5947 32.556 17.6427 33.0516L17.6864 33.5028C17.8554 35.247 17.9399 36.1191 17.4292 36.5067C16.9186 36.8944 16.1509 36.5409 14.6156 35.834L14.2184 35.6511C13.7821 35.4503 13.5639 35.3498 13.3327 35.3498C13.1014 35.3498 12.8833 35.4503 12.447 35.6511L12.0498 35.834C10.5145 36.5409 9.7468 36.8944 9.23611 36.5067C8.72543 36.1191 8.80994 35.247 8.97895 33.5029L9.02267 33.0516C9.0707 32.556 9.09471 32.3082 9.02326 32.0784C8.9518 31.8486 8.79297 31.6629 8.47529 31.2914L8.18608 30.9532C7.06818 29.646 6.50923 28.9923 6.7043 28.3651C6.89936 27.7378 7.71925 27.5523 9.35904 27.1813L9.78327 27.0853C10.2492 26.9799 10.4822 26.9271 10.6693 26.7851C10.8564 26.6431 10.9764 26.4279 11.2163 25.9974L11.4348 25.6055Z" stroke="#263238" stroke-width="3"/>
<path d="M16.666 67.9614H24.1991C27.5687 67.9614 30.9745 68.3124 34.2538 68.988C40.0546 70.1831 46.1622 70.3279 52.0225 69.3793C54.912 68.9115 57.7528 68.1963 60.3243 66.9552C62.6456 65.8347 65.4891 64.2555 67.3991 62.4865C69.3064 60.72 71.2926 57.829 72.7024 55.5692C73.9114 53.6315 73.3266 51.2541 71.4144 49.8102C69.2904 48.2064 66.1384 48.2067 64.0147 49.8109L57.9908 54.3615C55.6561 56.1251 53.1059 57.7486 50.0679 58.2331C49.7027 58.2914 49.3199 58.3445 48.9205 58.3907M48.9205 58.3907C48.8003 58.4047 48.6786 58.418 48.5554 58.4306M48.9205 58.3907C49.4065 58.2866 49.8891 57.9869 50.3419 57.5917C52.4859 55.7204 52.6215 52.5667 50.7612 50.4772C50.3295 49.9923 49.8245 49.588 49.2629 49.2531C39.9384 43.6916 25.4307 47.9274 16.666 54.1431M48.9205 58.3907C48.7989 58.4168 48.677 58.4306 48.5554 58.4306M48.5554 58.4306C46.8108 58.6097 44.7699 58.656 42.5052 58.4422" stroke="#263238" stroke-width="3" stroke-linecap="round"/>
<rect x="6.66602" y="46.6667" width="10" height="26.6667" rx="1.5" stroke="#263238" stroke-width="3"/>
</svg>
