<svg width="30" height="31" viewBox="0 0 30 31" fill="none" xmlns="http://www.w3.org/2000/svg">
<rect y="0.632812" width="30" height="30" rx="15" fill="white"/>
<g clip-path="url(#clip0_167_582)">
<path d="M19.2265 5.63281H15.8559V19.256C15.8559 20.8792 14.5595 22.2125 12.9462 22.2125C11.333 22.2125 10.0366 20.8792 10.0366 19.256C10.0366 17.6618 11.3042 16.3574 12.8598 16.2995V12.8792C9.43161 12.9371 6.66602 15.7488 6.66602 19.256C6.66602 22.7923 9.48923 25.6328 12.9751 25.6328C16.4608 25.6328 19.284 22.7633 19.284 19.256V12.2705C20.5516 13.198 22.1073 13.7488 23.7493 13.7778V10.3575C21.2142 10.2705 19.2265 8.18353 19.2265 5.63281Z" fill="#314064"/>
</g>
<defs>
<clipPath id="clip0_167_582">
<rect width="20" height="20" fill="white" transform="translate(5 5.63281)"/>
</clipPath>
</defs>
</svg>
