<svg width="80" height="80" viewBox="0 0 80 80" fill="none" xmlns="http://www.w3.org/2000/svg">
<path d="M6.66602 17.5245C6.66602 11.5279 11.8894 6.66675 18.3327 6.66675C24.776 6.66675 29.9993 11.5279 29.9993 17.5245C29.9993 23.474 26.2758 30.4166 20.4661 32.8993C19.1118 33.4781 17.5536 33.4781 16.1992 32.8993C10.3896 30.4166 6.66602 23.474 6.66602 17.5245Z" fill="#407BFF" stroke="#407BFF" stroke-width="3"/>
<path d="M50 57.5245C50 51.5279 55.2233 46.6667 61.6667 46.6667C68.11 46.6667 73.3333 51.5279 73.3333 57.5245C73.3333 63.474 69.6097 70.4166 63.8001 72.8993C62.4458 73.4781 60.8875 73.4781 59.5332 72.8993C53.7236 70.4166 50 63.474 50 57.5245Z" fill="#407BFF" stroke="#407BFF" stroke-width="3"/>
<path d="M61.666 58.3333H61.696" stroke="white" stroke-width="3" stroke-linecap="round" stroke-linejoin="round"/>
<path d="M18.3027 18.3333H18.3327" stroke="white" stroke-width="3" stroke-linecap="round" stroke-linejoin="round"/>
<path d="M40.0004 15.1667C39.172 15.1667 38.5004 15.8383 38.5004 16.6667C38.5004 17.4952 39.172 18.1667 40.0004 18.1667V15.1667ZM40.0004 63.3334L41.0611 64.3941C41.6468 63.8083 41.6468 62.8585 41.0611 62.2728L40.0004 63.3334ZM57.3525 28.9578L58.1578 30.2233L57.3525 28.9578ZM22.6483 51.0423L23.4536 52.3078H23.4536L22.6483 51.0423ZM36.0611 57.2728C35.4753 56.687 34.5255 56.687 33.9397 57.2728C33.354 57.8585 33.354 58.8083 33.9397 59.3941L36.0611 57.2728ZM33.9397 67.2728C33.354 67.8585 33.354 68.8083 33.9397 69.3941C34.5255 69.9799 35.4753 69.9799 36.0611 69.3941L33.9397 67.2728ZM53.7733 15.1667H40.0004V18.1667H53.7733V15.1667ZM40.0004 61.8334H26.2275V64.8334H40.0004V61.8334ZM56.5472 27.6923L21.843 49.7768L23.4536 52.3078L58.1578 30.2233L56.5472 27.6923ZM41.0611 62.2728L36.0611 57.2728L33.9397 59.3941L38.9397 64.3941L41.0611 62.2728ZM38.9397 62.2728L33.9397 67.2728L36.0611 69.3941L41.0611 64.3941L38.9397 62.2728ZM26.2275 61.8334C21.0585 61.8334 19.0927 55.0829 23.4536 52.3078L21.843 49.7768C14.95 54.1633 18.0571 64.8334 26.2275 64.8334V61.8334ZM53.7733 18.1667C58.9423 18.1667 60.9081 24.9172 56.5472 27.6923L58.1578 30.2233C65.0508 25.8369 61.9437 15.1667 53.7733 15.1667V18.1667Z" fill="#407BFF"/>
</svg>
