<svg width="30" height="31" viewBox="0 0 30 31" fill="none" xmlns="http://www.w3.org/2000/svg">
<rect y="0.632812" width="30" height="30" rx="15" fill="white"/>
<path d="M24.8008 11.6328C24.8008 11.6328 24.6055 10.2539 24.0039 9.64844C23.2422 8.85156 22.3906 8.84766 22 8.80078C19.2031 8.59766 15.0039 8.59766 15.0039 8.59766H14.9961C14.9961 8.59766 10.7969 8.59766 8 8.80078C7.60938 8.84766 6.75781 8.85156 5.99609 9.64844C5.39453 10.2539 5.20312 11.6328 5.20312 11.6328C5.20312 11.6328 5 13.2539 5 14.8711V16.3867C5 18.0039 5.19922 19.625 5.19922 19.625C5.19922 19.625 5.39453 21.0039 5.99219 21.6094C6.75391 22.4063 7.75391 22.3789 8.19922 22.4648C9.80078 22.6172 15 22.6641 15 22.6641C15 22.6641 19.2031 22.6563 22 22.457C22.3906 22.4102 23.2422 22.4063 24.0039 21.6094C24.6055 21.0039 24.8008 19.625 24.8008 19.625C24.8008 19.625 25 18.0078 25 16.3867V14.8711C25 13.2539 24.8008 11.6328 24.8008 11.6328ZM12.9336 18.2266V12.6055L18.3359 15.4258L12.9336 18.2266Z" fill="#314064"/>
</svg>
