<svg width="476" height="613" viewBox="0 0 260 613" fill="none" xmlns="http://www.w3.org/2000/svg">
<mask id="mask0_119_218" style="mask-type:alpha" maskUnits="userSpaceOnUse" x="41" y="0" width="651" height="613">
<mask id="path-1-outside-1_119_218" maskUnits="userSpaceOnUse" x="40.7109" y="0.0498047" width="651" height="613" fill="black">
<rect fill="white" x="40.7109" y="0.0498047" width="651" height="613"/>
<path d="M366.641 153.445L387.068 1.0498L386.909 154.648L427.445 5.86386L407.017 158.259L467.024 15.3415L426.488 164.276L505.007 29.4828L444.841 172.4L540.756 47.9868L462.077 182.78L573.632 70.7031L477.876 194.966L603.475 97.03L491.761 208.957L629.489 126.666L503.73 224.602L651.353 159.161L513.625 241.451L668.749 193.913L521.126 259.354L681.356 230.469L526.233 278.008L689.017 268.23L528.786 296.964L691.57 306.592L528.786 316.22L689.017 344.954L526.233 335.326L681.356 382.714L521.126 353.98L668.749 419.421L513.625 371.882L651.353 454.172L503.73 388.731L629.489 486.667L491.761 404.227L603.475 516.304L477.876 418.217L573.632 542.631L462.077 430.553L540.756 565.196L444.841 440.783L505.007 583.7L426.488 449.057L467.024 597.842L407.017 454.925L427.445 607.47L386.909 458.535L387.068 612.284L366.641 459.739L346.213 612.284L346.213 458.535L305.676 607.47L326.264 454.925L266.257 597.842L306.794 449.057L228.274 583.7L288.44 440.783L192.526 565.196L271.205 430.553L159.49 542.631L255.405 418.217L129.806 516.304L241.52 404.227L103.792 486.667L229.551 388.731L81.9282 454.172L219.656 371.882L64.5326 419.421L212.155 353.98L51.9248 382.714L207.048 335.326L44.2644 344.954L204.495 316.22L41.7109 306.592L204.495 296.964L44.2644 268.23L207.048 278.008L51.9248 230.469L212.155 259.354L64.5326 193.913L219.656 241.451L81.9282 159.161L229.551 224.602L103.792 126.666L241.52 208.957L129.806 97.03L255.405 194.966L159.49 70.7031L271.205 182.78L192.526 47.9868L288.44 172.4L228.274 29.4828L306.794 164.276L266.257 15.3415L326.264 158.259L305.676 5.86386L346.213 154.648V1.0498L366.641 153.445Z"/>
</mask>
<path d="M366.641 153.445L387.068 1.0498L386.909 154.648L427.445 5.86386L407.017 158.259L467.024 15.3415L426.488 164.276L505.007 29.4828L444.841 172.4L540.756 47.9868L462.077 182.78L573.632 70.7031L477.876 194.966L603.475 97.03L491.761 208.957L629.489 126.666L503.73 224.602L651.353 159.161L513.625 241.451L668.749 193.913L521.126 259.354L681.356 230.469L526.233 278.008L689.017 268.23L528.786 296.964L691.57 306.592L528.786 316.22L689.017 344.954L526.233 335.326L681.356 382.714L521.126 353.98L668.749 419.421L513.625 371.882L651.353 454.172L503.73 388.731L629.489 486.667L491.761 404.227L603.475 516.304L477.876 418.217L573.632 542.631L462.077 430.553L540.756 565.196L444.841 440.783L505.007 583.7L426.488 449.057L467.024 597.842L407.017 454.925L427.445 607.47L386.909 458.535L387.068 612.284L366.641 459.739L346.213 612.284L346.213 458.535L305.676 607.47L326.264 454.925L266.257 597.842L306.794 449.057L228.274 583.7L288.44 440.783L192.526 565.196L271.205 430.553L159.49 542.631L255.405 418.217L129.806 516.304L241.52 404.227L103.792 486.667L229.551 388.731L81.9282 454.172L219.656 371.882L64.5326 419.421L212.155 353.98L51.9248 382.714L207.048 335.326L44.2644 344.954L204.495 316.22L41.7109 306.592L204.495 296.964L44.2644 268.23L207.048 278.008L51.9248 230.469L212.155 259.354L64.5326 193.913L219.656 241.451L81.9282 159.161L229.551 224.602L103.792 126.666L241.52 208.957L129.806 97.03L255.405 194.966L159.49 70.7031L271.205 182.78L192.526 47.9868L288.44 172.4L228.274 29.4828L306.794 164.276L266.257 15.3415L326.264 158.259L305.676 5.86386L346.213 154.648V1.0498L366.641 153.445Z" stroke="black" stroke-width="2" stroke-miterlimit="10" mask="url(#path-1-outside-1_119_218)"/>
</mask>
<g mask="url(#mask0_119_218)">
<rect x="-785.721" y="-34.1172" width="1152.83" height="702.852" rx="45" fill="#3E3E41"/>
</g>
<path d="M95.7147 444.474L141.422 467.964L95.7147 491.644L70.7109 534.663L45.7072 491.644L0.000266282 467.964L45.7072 444.474L70.7109 401.266L95.7147 444.474Z" fill="#407BFF" fill-opacity="0.26"/>
<path d="M217.102 230.795L298.777 272.772L217.102 315.085L172.422 391.958L127.742 315.085L46.0666 272.772L127.742 230.795L172.422 153.585L217.102 230.795Z" fill="#407BFF" fill-opacity="0.15"/>
</svg>
